<?xml version="1.0" encoding="utf-8"?>
<!-- Generator: Adobe Illustrator 25.4.3, SVG Export Plug-In . SVG Version: 6.00 Build 0)  -->
<svg version="1.0" id="Layer_1" xmlns="http://www.w3.org/2000/svg" xmlns:xlink="http://www.w3.org/1999/xlink" x="0px" y="0px"
	 viewBox="0 0 20 20" enable-background="new 0 0 20 20" xml:space="preserve">
<path fill="#FFFFFF" d="M9.5,13.5c0.2,0.2,0.4,0.2,0.6,0l2.8-2.8c0.2-0.2,0.2-0.5,0-0.7l-2.8-2.8C10,7,9.7,7,9.5,7.2
	c-0.2,0.2-0.2,0.4,0,0.7l1.3,1.3l0.9,0.7l-1.4,0H5.5c-0.1,0-0.2,0-0.3,0.1c-0.2,0.2-0.2,0.4,0,0.6c0.1,0.1,0.2,0.1,0.3,0.1l4.8,0
	l1.4,0l-1,0.9l-1.2,1.2C9.3,13,9.3,13.3,9.5,13.5z"/>
</svg>
