<svg xmlns="http://www.w3.org/2000/svg" width="18.189" height="18.36" viewBox="0 0 18.189 18.36">
  <path id="Subtraction_71" data-name="Subtraction 71" d="M-12422.123,4402.361h0a6.973,6.973,0,0,1-1.384-.14,6.828,6.828,0,0,1-2.463-1.036,6.9,6.9,0,0,1-2.494-3.03,6.864,6.864,0,0,1-.4-1.292,6.917,6.917,0,0,1,0-2.775,6.81,6.81,0,0,1,1.036-2.462,6.9,6.9,0,0,1,1.86-1.859,6.842,6.842,0,0,1,2.091-.95V4388a2.331,2.331,0,0,1,.672-1.879,2.325,2.325,0,0,1,.762-.509,2.324,2.324,0,0,1,.895-.178c.073,0,.148,0,.222.01h.856l.6-.594a2.563,2.563,0,0,1,.814-.608,2.558,2.558,0,0,1,.985-.246h.012a2.544,2.544,0,0,1,1.794.852l.6.6h.854c.071-.006.144-.01.215-.01a2.338,2.338,0,0,1,.9.178,2.331,2.331,0,0,1,.763.51,2.337,2.337,0,0,1,.676,1.876v.848l.6.6a2.332,2.332,0,0,1,.845,1.8,2.331,2.331,0,0,1-.845,1.8l-.6.606v.849a2.339,2.339,0,0,1-.676,1.874,2.328,2.328,0,0,1-.762.509,2.333,2.333,0,0,1-.9.178c-.071,0-.145,0-.217-.01h-.6a6.831,6.831,0,0,1-.991,2.263,6.91,6.91,0,0,1-1.86,1.858,6.836,6.836,0,0,1-1.83.875,6.84,6.84,0,0,1-2.008.3h-.02Zm-5.946-5.608a.077.077,0,0,0-.06.028.072.072,0,0,0-.016.063,5.75,5.75,0,0,0,.763,1.814,5.919,5.919,0,0,0,1.311,1.447,5.975,5.975,0,0,0,1.733.958,6.07,6.07,0,0,0,2.029.347,6.077,6.077,0,0,0,2.031-.347,5.97,5.97,0,0,0,1.732-.958,5.91,5.91,0,0,0,1.311-1.447,5.731,5.731,0,0,0,.763-1.814.077.077,0,0,0-.015-.063.079.079,0,0,0-.06-.028h-.677a.076.076,0,0,0-.074.057,4.966,4.966,0,0,1-.682,1.518,5.138,5.138,0,0,1-1.132,1.207,5.208,5.208,0,0,1-1.477.8,5.268,5.268,0,0,1-1.722.287,5.263,5.263,0,0,1-1.721-.287,5.206,5.206,0,0,1-1.477-.8,5.135,5.135,0,0,1-1.131-1.207,4.954,4.954,0,0,1-.683-1.518.078.078,0,0,0-.075-.057Zm3.583-.173a.085.085,0,0,0-.086.083,2.015,2.015,0,0,0,.15.766,2.105,2.105,0,0,0,.414.644,2.307,2.307,0,0,0,1.313.7v.781a.085.085,0,0,0,.086.084h.616a.085.085,0,0,0,.086-.084v-.784a2.309,2.309,0,0,0,1.3-.7,2.121,2.121,0,0,0,.41-.641,2.028,2.028,0,0,0,.148-.763v-.007a2.207,2.207,0,0,0-2.264-2.13.084.084,0,0,0-.085.083v.587a.084.084,0,0,0,.085.083,1.43,1.43,0,0,1,1.47,1.382,1.429,1.429,0,0,1-1.47,1.382,1.429,1.429,0,0,1-1.469-1.382.085.085,0,0,0-.086-.083Zm1.877-5.069a.085.085,0,0,0-.086.084v.744a2.314,2.314,0,0,0-1.312.7,2.141,2.141,0,0,0-.414.644,2.013,2.013,0,0,0-.15.766,2.207,2.207,0,0,0,2.264,2.137.085.085,0,0,0,.086-.083v-.587a.084.084,0,0,0-.086-.083,1.43,1.43,0,0,1-1.469-1.382,1.43,1.43,0,0,1,1.469-1.382,1.43,1.43,0,0,1,1.47,1.382.085.085,0,0,0,.085.084h.623a.085.085,0,0,0,.086-.084,2.028,2.028,0,0,0-.148-.763,2.121,2.121,0,0,0-.41-.641,2.3,2.3,0,0,0-1.3-.7v-.747a.085.085,0,0,0-.086-.084Zm1.182-4.242a.9.9,0,0,0-.49.145.917.917,0,0,0-.142.592v.587a6.834,6.834,0,0,1,4.746,1.953,6.839,6.839,0,0,1,2.069,4.7h.426a.591.591,0,0,0,.177.027.571.571,0,0,0,.408-.169.574.574,0,0,0,.142-.584v-1.1a1.14,1.14,0,0,1,.361-.862l.773-.779a.571.571,0,0,0,.315-.513.573.573,0,0,0-.315-.513l-.771-.771a1.21,1.21,0,0,1-.159-.184,1.152,1.152,0,0,1-.184-.44,1.167,1.167,0,0,1-.022-.241v-1.1a.908.908,0,0,0-.143-.59.9.9,0,0,0-.494-.147c-.029,0-.061,0-.09,0h-1.13a1.162,1.162,0,0,1-.827-.348l-.788-.784a.91.91,0,0,0-.5-.316.96.96,0,0,0-.521.326l-.786.775a1.156,1.156,0,0,1-.822.347h-1.133l-.006,0A.906.906,0,0,0-12421.428,4387.269Zm-.881,3.257a5.239,5.239,0,0,1,1.722.288,5.161,5.161,0,0,1,1.477.8,5.119,5.119,0,0,1,1.132,1.208,4.935,4.935,0,0,1,.682,1.518.076.076,0,0,0,.074.057h.677a.079.079,0,0,0,.06-.028.076.076,0,0,0,.015-.063,5.741,5.741,0,0,0-.763-1.814,5.919,5.919,0,0,0-1.311-1.447,5.983,5.983,0,0,0-1.732-.958,6.077,6.077,0,0,0-2.031-.347,6.066,6.066,0,0,0-2.029.347,5.975,5.975,0,0,0-1.733.958,5.919,5.919,0,0,0-1.311,1.447,5.759,5.759,0,0,0-.763,1.814.071.071,0,0,0,.016.063.076.076,0,0,0,.06.028h.675a.076.076,0,0,0,.075-.058,4.961,4.961,0,0,1,.683-1.516,5.137,5.137,0,0,1,1.131-1.208,5.161,5.161,0,0,1,1.477-.8A5.238,5.238,0,0,1-12422.309,4390.525Z" transform="translate(12429.004 -4384.001)" fill="#fcfcfc"/>
</svg>
