<svg xmlns="http://www.w3.org/2000/svg" width="18.19" height="18.187" viewBox="0 0 18.19 18.187">
  <path id="Path_796" data-name="Path 796" d="M1388.569,3690.816l-1.024-1.023v-1.446a2.464,2.464,0,0,0-2.729-2.736h-1.454l-1.023-1.017a2.74,2.74,0,0,0-1.918-.941h-.011a2.8,2.8,0,0,0-1.926.946l-1.026,1.012h-1.454a2.455,2.455,0,0,0-2.729,2.735v1.453l-1.024,1.017a2.454,2.454,0,0,0,0,3.858l1.023,1.024v1.453a2.461,2.461,0,0,0,2.729,2.729h1.446l1.031,1.024a2.454,2.454,0,0,0,3.857,0l1.032-1.025h1.446a2.461,2.461,0,0,0,2.729-2.729v-1.446l1.024-1.031a2.454,2.454,0,0,0,0-3.858Zm-9.028,2.958h-.622v.8h-1.155v-.8h-2.214V3693l1.879-2.615h1.226l-1.705,2.447h.85v-.712h1.119v.712h.622Zm1.334.867-.377.874h-.712l.281-.975a.615.615,0,0,1-.353-.586.679.679,0,0,1,1.358,0A1.518,1.518,0,0,1,1380.875,3694.642Zm4.4-.867h-.622v.8h-1.155v-.8h-2.214V3693l1.879-2.615h1.226l-1.7,2.447h.849v-.712h1.119v.712h.622Z" transform="translate(-1371.316 -3683.653)"/>
</svg>
