<svg xmlns="http://www.w3.org/2000/svg" width="18.19" height="18.188" viewBox="0 0 18.19 18.188">
  <path id="Path_797" data-name="Path 797" d="M2095.1,3700.513l-1.024-1.023v-1.446a2.465,2.465,0,0,0-2.729-2.736H2089.9l-1.023-1.016a2.439,2.439,0,0,0-3.856,0l-1.026,1.011h-1.454a2.455,2.455,0,0,0-2.729,2.736v1.453l-1.024,1.016a2.455,2.455,0,0,0,0,3.858l1.023,1.023v1.453a2.461,2.461,0,0,0,2.729,2.729h1.446l1.031,1.023a2.454,2.454,0,0,0,3.857,0l1.032-1.025h1.446a2.461,2.461,0,0,0,2.729-2.729V3705.4l1.023-1.031a2.454,2.454,0,0,0,0-3.858Zm-9.136,4.226h-1.326v-3.664h-.871v-1.024h2.2Zm1.8.073-.422.978h-.8l.315-1.092a.687.687,0,0,1-.4-.656.76.76,0,0,1,1.521,0A1.7,1.7,0,0,1,2087.762,3704.812Zm2.358-.073h-1.326v-3.664h-.871v-1.024h2.2Z" transform="translate(-2077.85 -3693.349)"/>
</svg>
