<?xml version="1.0" encoding="UTF-8"?>
<svg width="299.92pt" height="300pt" viewBox="0 0 20 20" xmlns="http://www.w3.org/2000/svg">
  <g transform="matrix(.004896 0 0 -.004896 -4.6701 24.786)" style="">
    <path d="m2920 3543v-57l-189-13c-177-13-354-39-436-65-26-8-35 0-35 31 0 34-13 41-70 41-64 0-70-5-70-58 0-51-9-59-75-72-60-11-270-86-460-164-17-7-25 10-25 52 0 58-5 62-70 62h-70v-450-450h140 140v72c0 386 638 413 675 28l10-102 91 6 92 6-6 126c-11 274 136 414 438 414s449-140 438-414l-6-126 188-12v72c0 190 184 331 395 302 175-24 285-139 285-300v-72h140 140v450 450h-70c-66 0-70-3-70-69v-69l-107 48c-59 26-185 71-280 101-165 51-173 56-173 111 0 53-6 58-70 58-57 0-70-8-70-40 0-22-2-40-5-40s-72 13-155 29c-82 15-229 35-325 42l-175 15v57c0 53-5 57-80 57s-80-4-80-57zm6-253 2-120-179-13c-172-12-400-47-460-70-23-9-29 14-29 119v130l135 23c144 24 457 58 502 53 20-1 28-36 29-122zm563 78c120-17 226-35 235-40 31-20 19-253-13-241-60 23-288 58-460 70l-179 13 3 120c1 66 3 121 4 123 2 5 202-17 410-45zm-1369-195v-128l-148-54c-82-30-208-94-280-142l-132-88v166c0 162 1 167 55 193 62 29 467 177 490 179 8 1 15-56 15-126zm2205-34 115-45v-166-167l-132 88c-72 48-198 112-280 142l-148 54v126 126l165-56c91-31 217-77 280-102z"/>
  </g>
  <path transform="matrix(-.75913 .65094 -.65094 -.75913 339.78 -55.632)" d="m293.11 164.77m-9.93 0a9.93 9.93 0 1 0 19.86 0 9.93 9.93 0 1 0-19.86 0zm9.93 0m-8.541 0a8.541 8.541 0 0 1 17.082 0 8.541 8.541 0 0 1-17.082 0z"/>
</svg>
