<?xml version="1.0" encoding="UTF-8"?>
<svg viewBox="0 0 20 20" xmlns="http://www.w3.org/2000/svg">
  <g transform="matrix(.003104 0 0 -.002729 -2.4082 20.926)">
    <path d="m3811 6930c-451-38-875-183-1236-425-153-102-261-191-396-325-930-924-1016-2402-198-3430 105-133 230-261 353-365 58-48 106-92 106-96 0-8-94-97-560-529-251-233-310-293-334-338-74-144 2-309 156-341 38-8 701-11 2278-9l2225 3 40 21c89 48 134 121 135 217 0 32-7 74-15 95-11 26-139 159-431 447l-416 410 83 65c125 96 353 329 451 460 118 157 188 270 268 435 116 238 194 488 236 755 26 164 26 586 0 750-115 734-515 1364-1124 1770-338 226-697 361-1102 415-140 18-390 26-519 15zm474-241c89-12 113-24 279-142 137-97 430-390 523-522 399-570 578-1168 530-1775-6-83-12-130-33-255-26-156-105-407-186-590-203-459-598-935-1100-1325l-86-67-114-7c-137-8-352 6-508 34-1123 201-1939 1173-1940 2312-1 1056 704 1986 1720 2267 289 81 625 106 915 70z"/>
  </g>
</svg>
