<svg xmlns="http://www.w3.org/2000/svg" width="18.901" height="21.949" viewBox="0 0 18.901 21.949">
  <g id="Group_11967" data-name="Group 11967" transform="translate(-6235.861 -2464.734)">
    <path id="Subtraction_85" data-name="Subtraction 85" d="M6.562,11.322h0a.769.769,0,0,1-.183-.022A7.609,7.609,0,0,0,6.1,9.93a.767.767,0,0,1,.317-.142,4.159,4.159,0,0,0-.536-8.231c-.09-.006-.181-.009-.27-.009A4.159,4.159,0,0,0,1.525,4.9a.782.782,0,0,1-.037.128A7.57,7.57,0,0,0,0,4.638l0-.016,0-.022A5.707,5.707,0,0,1,5.606,0c.123,0,.248,0,.372.012a5.708,5.708,0,0,1,.736,11.3A.8.8,0,0,1,6.562,11.322Z" transform="translate(6243.001 2466.716)" fill="#fff"/>
    <path id="Ellipse_388" data-name="Ellipse 388" d="M4.451-1.5A5.951,5.951,0,0,1,10.4,4.451,5.951,5.951,0,0,1,4.451,10.4,5.951,5.951,0,0,1-1.5,4.451,5.951,5.951,0,0,1,4.451-1.5Zm0,10.354a4.4,4.4,0,1,0-4.4-4.4A4.408,4.408,0,0,0,4.451,8.854Z" transform="translate(6237.361 2474.428)" fill="#fff"/>
    <g id="Group_11965" data-name="Group 11965" transform="translate(6248.354 2478.814)">
      <g id="Group_11948" data-name="Group 11948" transform="translate(0 0)">
        <path id="Path_3027" data-name="Path 3027" d="M48.76,52.5H47.274a.774.774,0,1,1,0-1.548H48.76a2.2,2.2,0,0,0,2.2-2.2V47.274a.774.774,0,1,1,1.548,0V48.76A3.749,3.749,0,0,1,48.76,52.5Z" transform="translate(-46.098 -46.5)" fill="#fff"/>
        <path id="Path_3028" data-name="Path 3028" d="M49,65.3a.772.772,0,0,1-.569-.249l-1.722-1.865a.774.774,0,0,1,0-1.05l1.722-1.866a.774.774,0,0,1,1.138,1.05l-1.237,1.341,1.237,1.34A.774.774,0,0,1,49,65.3Z" transform="translate(-46.5 -57.435)" fill="#fff"/>
      </g>
    </g>
    <g id="Group_11966" data-name="Group 11966" transform="translate(6235.929 2464.734)">
      <path id="Path_3025" data-name="Path 3025" d="M10.274,15.664A.774.774,0,0,1,9.5,14.89V13.351A3.855,3.855,0,0,1,13.351,9.5h1.538a.774.774,0,0,1,0,1.548H13.351a2.305,2.305,0,0,0-2.3,2.3V14.89A.774.774,0,0,1,10.274,15.664Z" transform="translate(-9.5 -7.568)" fill="#fff"/>
      <path id="Path_3030" data-name="Path 3030" d="M47.274,65.437a.774.774,0,0,1-.569-1.3L48,62.732l-1.3-1.408a.774.774,0,0,1,1.138-1.05l1.783,1.933a.774.774,0,0,1,0,1.05l-1.783,1.931A.772.772,0,0,1,47.274,65.437Z" transform="translate(-43.253 -60.025)" fill="#fff"/>
    </g>
  </g>
</svg>
