<?xml version="1.0" encoding="utf-8"?>
<!-- Generator: Adobe Illustrator 25.4.1, SVG Export Plug-In . SVG Version: 6.00 Build 0)  -->
<svg version="1.1" id="Layer_1" xmlns="http://www.w3.org/2000/svg" xmlns:xlink="http://www.w3.org/1999/xlink" x="0px" y="0px"
	 viewBox="0 0 152 98" style="enable-background:new 0 0 152 98;" xml:space="preserve">
<style type="text/css">
	.st0{fill:url(#SVGID_1_);}
	.st1{fill:#FFFFFF;}
</style>
<linearGradient id="SVGID_1_" gradientUnits="userSpaceOnUse" x1="49.071" y1="33.0619" x2="99.1352" y2="33.0619">
	<stop  offset="0" style="stop-color:#CCA551"/>
	<stop  offset="0.5304" style="stop-color:#F7C775"/>
</linearGradient>
<path class="st0" d="M74.2,3.7L74.2,3.7C74.1,3.7,74.1,3.7,74.2,3.7C74.1,3.7,74.1,3.7,74.2,3.7L74.2,3.7c-13.9,0-25.1,11.2-25.1,25
	v26.6h0c0,0,0,0,0,0v0.1h0c0,1.7,0.7,3.4,2,4.7l0,0c0,0,0,0,0,0c0,0,0,0,0,0c0,0,0,0,0,0c0,0,0,0,0,0l0,0c1.3,1.3,3.1,2,4.9,2
	c1.8,0,3.5-0.6,4.9-2l0,0l3.6-3.6c0.2-0.2,0.4-0.2,0.5-0.2c0.1,0,0.3,0,0.5,0.2l3.9,3.9l0,0c0,0,0,0,0,0c1.3,1.3,3.1,2,4.8,2v0
	c0,0,0,0,0,0v0c0,0,0,0,0,0c0,0,0,0,0,0v0c0,0,0,0,0,0v0c1.7,0,3.5-0.7,4.8-2c0,0,0,0,0,0l0,0l3.9-3.9c0.2-0.2,0.4-0.2,0.5-0.2
	c0.1,0,0.3,0,0.5,0.2l3.6,3.6l0,0c1.3,1.3,3.1,2,4.9,2c1.8,0,3.5-0.6,4.9-2l0,0c0,0,0,0,0,0c0,0,0,0,0,0c0,0,0,0,0,0c0,0,0,0,0,0
	l0,0c1.3-1.3,2-3,2-4.7h0V28.7C99.1,14.9,87.9,3.7,74.2,3.7z M90,57.7C90,57.7,90,57.7,90,57.7L90,57.7l-3.6-3.6
	c-0.8-0.8-1.9-1.2-3-1.2c0,0,0,0,0,0c0,0,0,0,0,0c-1.1,0-2.2,0.4-3,1.2l-3.9,3.9c-0.6,0.6-1.5,0.9-2.3,1c-0.8,0-1.7-0.3-2.3-1
	l-3.9-3.9c-0.8-0.8-1.9-1.2-3-1.2c0,0,0,0,0,0c0,0,0,0,0,0c-1.1,0-2.2,0.4-3,1.2l-3.6,3.6l0,0c0,0,0,0,0,0c-0.6,0.6-1.5,1-2.3,1
	c-0.8,0-1.7-0.3-2.3-1c-0.6-0.6-1-1.5-1-2.3h0V28.7c0-11.8,9.6-21.5,21.4-21.5c11.8,0,21.4,9.7,21.4,21.5v26.6h0
	c0,0.8-0.3,1.7-1,2.3c-0.6,0.6-1.5,1-2.3,1C91.4,58.6,90.6,58.3,90,57.7z M66.8,37.4L66.8,37.4c-1,0-1.8-0.8-1.8-1.8v-7.9
	c0-1,0.8-1.8,1.8-1.8h0c1,0,1.8,0.8,1.8,1.8v7.9C68.6,36.6,67.8,37.4,66.8,37.4z M81.4,37.4L81.4,37.4c-1,0-1.8-0.8-1.8-1.8v-7.9
	c0-1,0.8-1.8,1.8-1.8h0c1,0,1.8,0.8,1.8,1.8v7.9C83.2,36.6,82.4,37.4,81.4,37.4z"/>
<path class="st1" d="M10.3,69.7H21v4.4h-5.9v3.3h5.7v4.4h-5.7v7.5h-4.8V69.7z M26.6,86.5l-1,2.8h-5.4L28,69.7H32l7.8,19.6h-5.4
	l-1-2.8H26.6z M27.9,82.5H32l-2-6.7h0H30L27.9,82.5z M41.8,69.7h4.3l7.6,12.3l0.1-0.1l-0.2-12.3h4.8v19.6H54l-7.5-11.9l-0.1,0
	l0.1,11.9h-4.8V69.7z M64.2,74.1h-3.9v-4.4h12.7v4.4h-3.8v15.2h-5V74.1z M84.2,69.4c6,0,10.4,4.7,10.4,10.2s-4.3,10.2-10.4,10.2
	c-6.2,0-10.3-4.9-10.3-9.9c0-1.3,0.2-2.8,0.8-4.2C75.7,73,78.7,69.4,84.2,69.4z M84.3,85.3c3.6,0,5.3-3.2,5.3-5.8
	c0-2.5-1.7-5.8-5.3-5.8c-3.5,0-5.4,3-5.4,5.7C78.9,82.5,80.9,85.3,84.3,85.3z M97.3,69.7h5v7.4h6.4v-7.4h5v19.6h-5v-7.8h-6.4v7.8h-5
	V69.7z M117.2,69.7h6.4l3.9,12.9h0.1l3.8-12.9h6.5v19.6h-4.6l0.2-14.7l-0.1-0.1l-4.2,14.7h-3.3l-4.2-14.7l-0.1,0.1l0.2,14.7h-4.6
	V69.7z"/>
</svg>
