<svg xmlns="http://www.w3.org/2000/svg" width="18.191" height="16.01" viewBox="0 0 18.191 16.01">
  <path id="Union_22" data-name="Union 22" d="M-1076.59-10055.916a.47.47,0,0,1-.47-.47.472.472,0,0,1,.47-.471h17.251a.467.467,0,0,1,.332.138.469.469,0,0,1,.137.333.471.471,0,0,1-.47.47Zm1.176-1.568h0a.47.47,0,0,1-.332-.137.468.468,0,0,1-.138-.332.468.468,0,0,1,.137-.333.468.468,0,0,1,.332-.139h14.9a.465.465,0,0,1,.332.138.467.467,0,0,1,.138.333h0a.47.47,0,0,1-.47.47Zm10.586-1.567a.472.472,0,0,1-.332-.139.468.468,0,0,1-.138-.333.47.47,0,0,1,.47-.469h.314v-4.941h-.314a.471.471,0,0,1-.47-.47.471.471,0,0,1,.47-.471h3.137a.471.471,0,0,1,.47.471.471.471,0,0,1-.47.47h-.314v4.941h.314a.47.47,0,0,1,.47.471.471.471,0,0,1-.47.47Zm1.254-.94h.628v-4.941h-.628Zm-5.959.94a.471.471,0,0,1-.332-.139.467.467,0,0,1-.138-.333.47.47,0,0,1,.47-.469h.314v-4.941h-.314a.471.471,0,0,1-.47-.47.471.471,0,0,1,.47-.471h3.136a.471.471,0,0,1,.47.471.471.471,0,0,1-.47.47h-.314v4.941h.314a.47.47,0,0,1,.47.469.468.468,0,0,1-.137.333.472.472,0,0,1-.332.139Zm1.254-.94h.628v-4.941h-.628Zm-5.959.94h0a.471.471,0,0,1-.47-.47.471.471,0,0,1,.47-.471h.315v-4.941h-.314a.471.471,0,0,1-.47-.47.471.471,0,0,1,.47-.471h3.136a.471.471,0,0,1,.47.471.471.471,0,0,1-.47.47h-.314v4.941h.314a.466.466,0,0,1,.332.137.468.468,0,0,1,.138.332.467.467,0,0,1-.137.333.472.472,0,0,1-.332.139Zm1.254-.94h.628v-4.941h-.628Zm-3.215-6.509a.078.078,0,0,1-.078-.079v-.783a.078.078,0,0,1,.041-.069l8.234-4.484a.084.084,0,0,1,.075,0l8.233,4.484a.078.078,0,0,1,.041.069v.783a.078.078,0,0,1-.078.079Zm2.046-.94h12.351l-6.164-3.186Z" transform="translate(1077.06 10071.926)"/>
</svg>
