<?xml version="1.0" encoding="utf-8"?>
<svg viewBox="0 0 20 20" width="20" height="20" fill="none" color="#FCFCFC" xmlns="http://www.w3.org/2000/svg">
  <path d="M 0 9.993 C 0 17.677 8.316 22.479 14.971 18.637 C 18.059 16.855 20 13.559 20 9.993 C 20 2.311 11.643 -2.489 4.99 1.351 C 1.903 3.134 0 6.429 0 9.993 Z" fill="#121122" style=""/>
  <path fill-rule="evenodd" clip-rule="evenodd" d="M 3.011 7.466 C 2.89 8.251 3.033 9.057 3.182 9.834 C 3.239 9.959 3.366 10.042 3.522 10.096 C 3.196 10.774 3.028 11.516 3.027 12.267 C 3.027 15.516 6.171 18.152 10.051 18.152 C 13.928 18.152 17.078 15.523 17.078 12.267 C 17.077 11.509 16.904 10.759 16.575 10.075 C 16.703 10.021 16.809 9.943 16.859 9.834 C 17.008 9.057 17.15 8.251 17.029 7.466 C 16.914 6.413 16.553 6.091 15.468 6.36 C 14.916 6.488 14.186 6.814 13.627 7.197 C 12.579 6.678 11.357 6.38 10.051 6.38 C 8.73 6.38 7.495 6.686 6.44 7.217 C 5.877 6.825 5.134 6.49 4.574 6.36 C 3.487 6.091 3.125 6.413 3.011 7.466 Z M 7.101 12.109 C 6.279 11.746 4.869 11.839 4.869 11.839 C 4.869 11.839 4.937 13.164 5.744 13.613 C 6.702 14.145 8.484 13.882 8.484 13.882 C 8.484 13.882 8.332 12.65 7.101 12.107 L 7.101 12.109 Z M 11.676 13.884 C 11.676 13.884 13.457 14.148 14.416 13.615 C 15.223 13.167 15.289 11.841 15.289 11.841 C 15.289 11.841 13.882 11.748 13.057 12.111 C 11.827 12.65 11.676 13.88 11.676 13.88 L 11.676 13.884 Z M 9.7 14.818 C 9.7 14.917 9.882 14.995 10.104 14.995 C 10.327 14.995 10.509 14.917 10.509 14.818 C 10.509 14.721 10.327 14.642 10.104 14.642 C 9.882 14.642 9.7 14.718 9.7 14.818 Z" fill="#F2F4F8" style=""/>
  <path fill-rule="evenodd" clip-rule="evenodd" d="M 18.056 14.002 C 17.398 13.748 16.7 13.617 15.996 13.614 L 15.997 13.614 C 15.818 13.614 15.818 13.338 15.997 13.338 C 16.727 13.34 17.45 13.475 18.131 13.737 C 18.202 13.758 18.244 13.832 18.226 13.906 C 18.206 13.98 18.13 14.023 18.056 14.002 Z M 2.018 13.742 C 2.7 13.482 3.422 13.347 4.153 13.344 L 4.153 13.346 C 4.332 13.346 4.331 13.622 4.153 13.622 C 3.448 13.624 2.749 13.755 2.093 14.01 C 2.018 14.03 1.942 13.986 1.921 13.913 C 1.904 13.84 1.945 13.763 2.018 13.742 Z M 3.431 14.537 C 3.772 14.429 4.126 14.37 4.483 14.36 C 4.662 14.361 4.661 14.638 4.482 14.638 C 4.158 14.647 3.834 14.701 3.524 14.798 C 3.232 14.884 2.903 15.004 2.69 15.199 C 2.559 15.321 2.364 15.125 2.494 15.004 C 2.752 14.767 3.105 14.636 3.43 14.537 Z M 4.802 15.052 C 4.523 15.172 4.256 15.315 4.002 15.48 C 3.745 15.636 3.521 15.841 3.337 16.079 C 3.298 16.145 3.321 16.231 3.386 16.268 C 3.452 16.305 3.536 16.284 3.575 16.22 C 3.731 16.005 3.956 15.837 4.176 15.695 C 4.42 15.541 4.672 15.405 4.939 15.293 C 5.004 15.253 5.027 15.17 4.988 15.103 C 4.949 15.038 4.864 15.015 4.799 15.052 L 4.802 15.052 Z M 15.664 14.632 C 15.99 14.641 16.313 14.694 16.625 14.793 C 16.786 14.839 16.942 14.897 17.095 14.966 C 17.226 15.023 17.347 15.101 17.455 15.194 C 17.586 15.315 17.783 15.12 17.652 14.998 C 17.396 14.76 17.046 14.629 16.717 14.531 C 16.376 14.423 16.022 14.363 15.664 14.355 C 15.485 14.355 15.484 14.632 15.664 14.632 Z M 15.97 15.686 C 15.731 15.539 15.479 15.407 15.219 15.299 L 15.219 15.296 C 15.155 15.256 15.132 15.172 15.171 15.106 C 15.209 15.041 15.294 15.019 15.361 15.056 C 15.9 15.292 16.469 15.595 16.821 16.083 C 16.86 16.148 16.838 16.233 16.772 16.272 C 16.705 16.308 16.622 16.286 16.583 16.223 C 16.424 16.002 16.197 15.831 15.97 15.686 Z" fill="#F2F4F8" style=""/>
  <path d="M 0.966 10.541 C 1.093 10.342 2.219 9.741 3.61 9.383 C 3.912 8.53 4.282 7.704 4.72 6.912 C 4.714 6.912 5.835 4.901 5.829 4.9 C 5.507 4.754 5.199 4.583 4.907 4.385 C 4.857 4.347 4.813 4.302 4.774 4.255 C 4.743 4.204 4.728 4.149 4.729 4.092 C 4.729 4.044 4.795 3.962 4.824 3.924 C 4.898 3.838 4.981 3.755 5.071 3.682 C 5.285 3.507 5.509 3.346 5.743 3.2 C 5.854 3.126 5.97 3.055 6.084 2.983 C 6.881 2.474 7.32 2.092 8.05 1.672 C 8.747 1.272 9.089 1.025 9.899 1.066 C 10.917 1.066 13.447 4.288 14.588 5.95 C 15.272 6.949 16.19 8.745 16.528 9.422 C 16.61 9.442 16.681 9.462 16.75 9.482 C 17.788 9.793 18.807 10.25 19.055 10.541 C 19.277 10.799 18.307 10.915 17.353 11.081 C 16.398 11.246 13.156 11.329 10.042 11.351 C 6.928 11.373 3.292 11.268 2.501 11.144 C 1.71 11.017 0.805 10.791 0.966 10.541 Z" fill="#6665DD" style=""/>
  <path d="M 15.66 7.756 C 15.66 7.756 13.609 7.242 9.993 7.242 C 6.112 7.242 4.244 7.842 4.244 7.842 C 4.244 7.842 4.023 8.264 3.925 8.505 C 3.829 8.749 3.61 9.383 3.61 9.383 C 3.61 9.383 6.435 8.879 10.049 8.879 C 12.225 8.888 14.397 9.071 16.544 9.428 C 16.544 9.428 16.216 8.661 16.02 8.333 C 15.903 8.138 15.784 7.947 15.66 7.756 Z" fill="#FF99A5" style=""/>
  <path d="M 3.451 3.419 C 3.686 3.385 4.005 4.105 4.005 4.105 C 4.005 4.105 4.744 3.907 4.859 4.105 C 4.976 4.304 4.34 4.782 4.34 4.782 C 4.34 4.782 4.724 5.457 4.602 5.598 C 4.479 5.737 3.796 5.311 3.796 5.311 C 3.796 5.311 3.275 5.901 3.104 5.811 C 2.934 5.723 3.127 4.957 3.127 4.957 C 3.127 4.957 2.39 4.642 2.44 4.456 C 2.489 4.271 3.258 4.213 3.258 4.213 C 3.258 4.213 3.216 3.454 3.451 3.419 Z" fill="#FFE600" style=""/>
</svg>