<?xml version="1.0" encoding="utf-8"?>
<!-- Generator: Adobe Illustrator 25.4.3, SVG Export Plug-In . SVG Version: 6.00 Build 0)  -->
<svg version="1.0" id="Layer_1" xmlns="http://www.w3.org/2000/svg" xmlns:xlink="http://www.w3.org/1999/xlink" x="0px" y="0px"
	 viewBox="0 0 20 20" enable-background="new 0 0 20 20" xml:space="preserve">
<path fill="#FFFFFF" d="M12.3,1.8c-0.3,0.3-0.3,0.8,0,1l1.3,1.3H7.1c-0.4,0-0.7,0.3-0.7,0.7c0,0.4,0.3,0.7,0.7,0.7h8l1.9,1.9
	l-1.9,1.9H7.3l1.3-1.3c0.3-0.3,0.3-0.8,0-1c-0.3-0.3-0.8-0.3-1,0l-5.1,5.1c-0.1,0.1-0.2,0.3-0.2,0.5c0,0.2,0.1,0.4,0.2,0.5l5.1,5.1
	c0.3,0.3,0.8,0.3,1,0c0.3-0.3,0.3-0.8,0-1l-1.3-1.3h6.5c0.4,0,0.7-0.3,0.7-0.7c0-0.4-0.3-0.7-0.7-0.7h-8L4,12.7l1.9-1.9h7.7
	l-1.3,1.3c-0.3,0.3-0.3,0.8,0,1s0.8,0.3,1,0L18.5,8c0.1-0.1,0.2-0.3,0.2-0.5c0-0.2-0.1-0.4-0.2-0.5l-5.1-5.1
	C13.1,1.6,12.6,1.6,12.3,1.8z"/>
</svg>
