<svg width="20" height="20" viewBox="0 0 20 20" fill="none" xmlns="http://www.w3.org/2000/svg">
<path d="M15.3,19c0.3,0.2,0.6,0.2,0.9,0.1c0.3-0.1,0.5-0.4,0.6-0.7c0.7-3.4,2.5-11.9,3.1-15
	c0-0.2,0-0.5-0.2-0.6c-0.2-0.2-0.4-0.2-0.7-0.1C15.6,3.9,4.9,7.9,0.5,9.5c-0.3,0.1-0.5,0.4-0.4,0.7c0,0.3,0.2,0.5,0.5,0.6
	c2,0.6,4.5,1.4,4.5,1.4s1.2,3.6,1.8,5.5c0.1,0.2,0.3,0.4,0.5,0.5c0.2,0.1,0.5,0,0.7-0.2c1-0.9,2.6-2.4,2.6-2.4S13.6,17.8,15.3,19z
	 M6.2,11.8l1.4,4.6l0.3-2.9c0,0,5.4-4.8,8.4-7.6c0.1-0.1,0.1-0.2,0-0.3c-0.1-0.1-0.2-0.1-0.3-0.1C12.5,7.8,6.2,11.8,6.2,11.8z"/>
</svg>
