<svg xmlns="http://www.w3.org/2000/svg" width="19.8271" height="13.7194" viewBox="0 0 19.8271 13.7194"><defs><style>.cls-1{fill:#fff;}</style></defs><g id="Layer_2" data-name="Layer 2"><g id="Layer_1-2" data-name="Layer 1"><path class="cls-1" d="M15.027,2.45h0l-.0094,0-.0094,0c-.1439,0-.2862.0067-.4269.0191q.0748.1494.1406.3041A5.1758,5.1758,0,0,1,15.1314,4.8V9.933c0,.0129-.0006.0256-.0018.0382a1.7078,1.7078,0,0,1-.4977,1.1517l-.0094.0093a1.7052,1.7052,0,0,1-1.2072.4959l-.01,0-.0093,0a1.7051,1.7051,0,0,1-1.2066-.4953l-.0067-.0065-.4988-.4988-.541.5409-.0013.0013,0,0,0,0-.0051.0052a1.7037,1.7037,0,0,1-.9284.4788v.7081h0l0,.0028v.0173h0a1.304,1.304,0,0,0,.3818.904h0l0,0,0,0,.0006.0007h0a1.3322,1.3322,0,0,0,1.8675,0l0,0,.6926-.6927a.1271.1271,0,0,1,.19,0l.7415.7415,0,0,0,0a1.3042,1.3042,0,0,0,.925.3832v-.0009h0v.0009l.0094-.0005.0093.0005v-.0009h0v.0009a1.3046,1.3046,0,0,0,.9251-.3832v0l0,0,.7416-.7415a.127.127,0,0,1,.19,0l.6926.6927,0,0a1.3322,1.3322,0,0,0,1.8675,0h0l.0006-.0007,0,0,0,0h0a1.3034,1.3034,0,0,0,.3817-.904h.0009V7.25A4.8,4.8,0,0,0,15.027,2.45ZM16.7607,8.568a.3421.3421,0,0,1-.342.3421h0a.3421.3421,0,0,1-.3421-.3421V7.0447a.3421.3421,0,0,1,.3421-.3421h0a.342.342,0,0,1,.342.3421Z"/><path class="cls-1" d="M8.6915,11.1767l-.0081-.0082-.541-.541-.4989.4988-.0065.0065a1.7055,1.7055,0,0,1-1.2067.4953l-.0093,0-.01,0a1.7048,1.7048,0,0,1-1.2072-.4959l-.0057-.0055-.0037-.0038-.0012-.0012a1.7078,1.7078,0,0,1-.4968-1.161l-.001-.0277V4.8a5.1758,5.1758,0,0,1,.4095-2.0274q.0656-.1548.1406-.3041c-.1407-.0124-.283-.0191-.4269-.0191h0l-.0094,0L4.8,2.45A4.8,4.8,0,0,0,0,7.25v5.1127H0l0,.0028v.0173h0a1.3034,1.3034,0,0,0,.3817.904h0l0,0,0,0,.0007.0007h0a1.3044,1.3044,0,0,0,.9338.3818,1.3043,1.3043,0,0,0,.9337-.3822v0l.6927-.6927a.127.127,0,0,1,.19,0l.7415.7415,0,0,0,0a1.3046,1.3046,0,0,0,.9251.3832v-.0009h0v.0009l.0093-.0005.0094.0005v-.0009h0v.0009a1.3042,1.3042,0,0,0,.925-.3832l0,0,0,0,.7415-.7415a.1271.1271,0,0,1,.19,0l.6926.6927v0a1.3323,1.3323,0,0,0,1.8676,0h0l.0007-.0007,0,0v0h0a1.3034,1.3034,0,0,0,.3817-.904h.001v-.7281A1.704,1.704,0,0,1,8.6915,11.1767ZM3.75,8.568a.3421.3421,0,1,1-.6841,0V7.0447a.3421.3421,0,1,1,.6841,0Z"/><path class="cls-1" d="M9.923,0h0L9.9136,0,9.9042,0a4.8,4.8,0,0,0-4.8,4.8V9.9128h0l0,.0028V9.933h0a1.3038,1.3038,0,0,0,.3817.9039v0h0l0,0,.0006.0007h0a1.3322,1.3322,0,0,0,1.8675,0l0,0,.6926-.6927a.1272.1272,0,0,1,.19,0l.7416.7415,0,0,0,0a1.3042,1.3042,0,0,0,.925.3832V11.269h0V11.27l.0093,0,.0094,0V11.269h0V11.27a1.3042,1.3042,0,0,0,.925-.3832l0,0,0,0,.7415-.7415a.1273.1273,0,0,1,.19,0l.6926.6927,0,0a1.3322,1.3322,0,0,0,1.8675,0h0l.0006-.0007,0,0h0l0,0a1.3039,1.3039,0,0,0,.3818-.9039h.0009V4.8A4.8,4.8,0,0,0,9.923,0ZM8.8544,6.1185a.3421.3421,0,1,1-.6841,0V4.5952a.3421.3421,0,1,1,.6841,0Zm2.8023,0a.3421.3421,0,0,1-.342.3421h0a.3421.3421,0,0,1-.3421-.3421V4.5952a.3421.3421,0,0,1,.3421-.3421h0a.3421.3421,0,0,1,.342.3421Z"/></g></g></svg>