<?xml version="1.0" encoding="utf-8"?>
<!-- Generator: Adobe Illustrator 25.4.3, SVG Export Plug-In . SVG Version: 6.00 Build 0)  -->
<svg version="1.0" id="katman_2" xmlns="http://www.w3.org/2000/svg" xmlns:xlink="http://www.w3.org/1999/xlink" x="0px" y="0px"
	 viewBox="0 0 32 32" enable-background="new 0 0 32 32" xml:space="preserve">
<g>
	<linearGradient id="SVGID_1_" gradientUnits="userSpaceOnUse" x1="-1.818989e-12" y1="16" x2="32" y2="16">
		<stop  offset="0" style="stop-color:#667381"/>
		<stop  offset="1" style="stop-color:#3C434E"/>
	</linearGradient>
	<circle fill="url(#SVGID_1_)" cx="16" cy="16" r="16"/>
	<g id="Group_45">
		<g id="Group_44">
			<g id="Group_43">
				
					<linearGradient id="Union_2_00000049932338669134843530000001274113479349958032_" gradientUnits="userSpaceOnUse" x1="-6171.0269" y1="-5353.2578" x2="-6171.0103" y2="-5353.2578" gradientTransform="matrix(739.05 0 0 659.57 4560711.5 3530864.25)">
					<stop  offset="0" style="stop-color:#CBA451"/>
					<stop  offset="0.5304" style="stop-color:#F6C675"/>
					<stop  offset="1" style="stop-color:#F6C675"/>
				</linearGradient>
				<path id="Union_2" fill="url(#Union_2_00000049932338669134843530000001274113479349958032_)" d="M15.4,25.9
					c-0.3,0-0.6-0.1-0.9-0.3c-0.1-0.1-0.2-0.2-0.3-0.3c-0.3-0.4-0.6-0.7-1-1.1l-0.1-0.1C13,24.1,12.9,24,12.7,24l0,0
					c-0.2,0-0.3,0.1-0.5,0.2c-0.2,0.2-0.3,0.3-0.5,0.5c-0.2,0.2-0.4,0.4-0.5,0.6c-0.4,0.4-0.8,0.6-1.3,0.5h0c0,0-0.1,0-0.1,0h0
					c-0.3,0-0.6-0.1-0.9-0.3c-0.1-0.1-0.3-0.2-0.4-0.3c-0.3-0.4-0.7-0.7-1-1.1l-0.1-0.1c-0.3-0.3-0.8-0.3-1.2,0
					c-0.2,0.2-0.3,0.3-0.5,0.5c-0.2,0.2-0.4,0.4-0.6,0.6c-0.2,0.2-0.6,0.2-0.8,0c-0.2-0.2-0.2-0.6,0-0.8l0,0C4.6,24.2,4.8,24,5,23.8
					c0.2-0.2,0.3-0.3,0.5-0.5c0.8-0.8,2-0.8,2.8,0l0.1,0.1l0.3,0.3c0-1.8,0-7.4,0-10.4c0-0.4,0-0.9,0.1-1.3c0.5-2.3,1.7-4,3.6-5.1
					c0.2-0.1,0.3-0.2,0.5-0.3c0.7-0.3,1.5-0.5,2.4-0.5c0,0,0,0,0,0c0.4,0,0.7,0,1.1,0.1c0,0,0,0,0,0c0.1,0,0.1,0,0.2,0h0
					c0.4,0,0.8,0,1.2,0.1l0,0c0.1,0,0.2,0,0.3,0.1c0.3,0.1,0.7,0.2,0.9,0.2l0,0c0.2,0.1,0.4,0.1,0.6,0.2c0.3,0.1,0.6,0.3,0.9,0.4
					c0,0,0,0,0,0c0.1,0.1,0.3,0.2,0.4,0.3c0.4,0.3,0.8,0.6,1.2,1c0,0,0,0,0,0l0.1,0.1c0.3,0.3,0.5,0.6,0.8,1c0.2,0.3,0.4,0.7,0.5,1
					c0.1,0.3,0.2,0.5,0.3,0.8c0,0,0,0,0,0c0.2,0.7,0.3,1.4,0.3,2.4c0,1.3,0,7.5,0,9c0.2,0.1,0.5,0.2,0.6,0.4l0.1,0.1
					c0.4,0.3,0.7,0.7,1.1,1.1c0,0,0.1,0.1,0.1,0.1c0.3,0.2,0.3,0.5,0.2,0.8c-0.2,0.3-0.5,0.3-0.8,0.2c-0.1-0.1-0.3-0.2-0.4-0.3
					c-0.3-0.4-0.7-0.7-1-1.1l-0.1-0.1c-0.3-0.3-0.8-0.3-1.2,0c-0.2,0.2-0.3,0.3-0.5,0.5c-0.2,0.2-0.4,0.4-0.6,0.6
					c-0.3,0.3-0.7,0.5-1.1,0.5c0,0,0,0-0.1,0c-0.2,0-0.5,0-0.7-0.1c0,0-0.1,0-0.1,0c-0.3-0.2-0.5-0.4-0.6-0.5c0,0-0.1-0.1-0.1-0.1
					c-0.1-0.1-0.1-0.2-0.2-0.2l-0.2-0.2l0,0c0,0,0,0-0.1-0.1l-0.1-0.2c-0.1-0.1-0.1-0.1-0.2-0.2C18.2,24,18.1,24,18,24
					c0,0-0.1,0-0.1,0c0,0-0.1,0-0.1,0c-0.2,0-0.3,0.2-0.5,0.5c0,0,0,0-0.1,0.1l0,0c0,0-0.1,0.1-0.1,0.1c-0.1,0.1-0.3,0.3-0.4,0.5
					c-0.1,0.1-0.1,0.1-0.2,0.2c-0.1,0.1-0.1,0.1-0.2,0.2c-0.2,0.2-0.4,0.3-0.7,0.4C15.5,25.9,15.5,25.9,15.4,25.9
					C15.4,25.9,15.4,25.9,15.4,25.9L15.4,25.9z M20.3,8.5C20.3,8.5,20.3,8.5,20.3,8.5l0.1,0.1c0.2,0.3,0.5,0.6,0.7,1
					c0.2,0.3,0.3,0.7,0.5,1c0.1,0.3,0.2,0.5,0.3,0.8c0,0,0,0,0,0c0.2,0.7,0.2,1.4,0.2,2.4c0,2.7,0,7.9,0,9.8l0.2-0.2
					c0.3-0.3,0.6-0.5,1-0.5v-0.8c0-0.8,0-1.8,0-2.9c0-2,0-4.4,0-5.2c0-0.9-0.1-1.5-0.2-2.1c-0.1-0.3-0.2-0.5-0.3-0.7
					c-0.1-0.3-0.3-0.6-0.5-0.9C22,10,21.8,9.8,21.5,9.5l0,0c-0.3-0.3-0.7-0.6-1-0.9C20.4,8.5,20.3,8.4,20.3,8.5L20.3,8.5
					C20.3,8.4,20.3,8.4,20.3,8.5z M10.7,21c0,0.3,0.3,0.6,0.6,0.6c0,0,0,0,0,0h8.1c0.3,0,0.6-0.3,0.6-0.6c0-0.3-0.3-0.6-0.6-0.6
					h-8.1C11,20.4,10.7,20.7,10.7,21L10.7,21z M11.9,19.1c0,0.3,0.3,0.6,0.6,0.6h5.7c0.3,0,0.6-0.2,0.6-0.6c0-0.3-0.2-0.6-0.6-0.6
					c0,0,0,0,0,0h-5.7C12.2,18.5,11.9,18.8,11.9,19.1z M14.8,14.3c0,0.6,0,1.3,0,1.9c0,0.7,0,0.3,0,1c0,0.4,0.2,0.7,0.5,0.7h0
					c0.3,0,0.5-0.3,0.5-0.7c0-0.2,0-0.8,0-1v-2c0.3,0,0.7,0,1,0c0.4,0,0.7-0.2,0.7-0.5c0-0.3-0.3-0.5-0.7-0.5c-0.3,0-0.7,0-1.1,0
					c0-0.4,0-0.9,0-1.3c0-0.4-0.2-0.6-0.5-0.6h0c0,0,0,0-0.1,0c0,0,0,0,0,0c0,0,0,0,0,0l0,0c0,0,0,0,0,0l0,0c0,0,0,0,0,0
					c0,0,0,0,0,0l0,0l0,0l0,0c0,0,0,0,0,0l0,0l0,0l0,0c0,0,0,0,0,0l0,0c0,0,0,0,0,0s0,0,0,0c0,0,0,0,0,0c0,0,0,0,0,0s0,0,0,0
					c0,0,0,0,0,0c0,0,0,0,0,0c0,0,0,0,0,0c0,0,0,0,0,0c0,0,0,0,0,0c0,0,0,0.1,0,0.1c0,0,0,0,0,0c0,0,0,0,0,0.1c0,0.4,0,0.9,0,1.3
					c-0.4,0-0.7,0-1.1,0c-0.4,0-0.7,0.3-0.7,0.5c0,0.3,0.3,0.5,0.7,0.5c0.2,0,0.1,0,0.3,0h0.7C14.8,14.2,14.8,14.2,14.8,14.3
					L14.8,14.3z M16.1,11c0.1,0.2,0.2,0.4,0.2,0.7c0,0.1,0,0.2,0,0.4h0.5c0.5,0,0.5,0,1,0c0.4,0,0.7-0.2,0.7-0.5
					c0-0.3-0.3-0.5-0.7-0.5c-0.5,0-0.8,0-1.2,0L16.1,11z M15.9,16.1"/>
			</g>
		</g>
	</g>
</g>
</svg>
