<?xml version="1.0" encoding="utf-8"?>
<!-- Generator: Adobe Illustrator 25.4.3, SVG Export Plug-In . SVG Version: 6.00 Build 0)  -->
<svg version="1.0" id="katman_2" xmlns="http://www.w3.org/2000/svg" xmlns:xlink="http://www.w3.org/1999/xlink" x="0px" y="0px"
	 viewBox="0 0 32 32" enable-background="new 0 0 32 32" xml:space="preserve">
<g>
	<g>
		<defs>
			<path id="SVGID_1_" d="M0,16c0,8.8,7.2,16,16,16s16-7.2,16-16c0-8.8-7.2-16-16-16S0,7.2,0,16"/>
		</defs>
		<clipPath id="SVGID_00000089556846424597657290000014776988012358760064_">
			<use xlink:href="#SVGID_1_"  overflow="visible"/>
		</clipPath>

		<linearGradient id="SVGID_00000183932529582196469310000013532534169454595750_" gradientUnits="userSpaceOnUse" x1="-412.5439" y1="256.9239" x2="-411.9953" y2="256.9239" gradientTransform="matrix(58.3374 0 0 -58.3374 24066.7441 15004.2744)">
			<stop  offset="0" style="stop-color:#667281"/>
			<stop  offset="3.306880e-04" style="stop-color:#667281"/>
			<stop  offset="0.9996" style="stop-color:#3C434E"/>
			<stop  offset="1" style="stop-color:#3C434E"/>
		</linearGradient>

		<rect x="0" y="0" clip-path="url(#SVGID_00000089556846424597657290000014776988012358760064_)" fill="url(#SVGID_00000183932529582196469310000013532534169454595750_)" width="32" height="32"/>
	</g>
	<g>
		<defs>
			<path id="SVGID_00000129895594457869299100000005385711306191099541_" d="M13.2,16.3v-2.4c0-0.3,0.2-0.5,0.5-0.5
				c0.3,0,0.5,0.2,0.5,0.5v2.4c0,0.3-0.2,0.5-0.5,0.5C13.5,16.9,13.2,16.6,13.2,16.3 M17.7,16.3v-2.4c0-0.3,0.2-0.5,0.5-0.5
				c0.3,0,0.5,0.2,0.5,0.5v2.4c0,0.3-0.2,0.5-0.5,0.5C17.9,16.9,17.7,16.6,17.7,16.3 M16,6.5C16,6.5,16,6.5,16,6.5
				c-4.3,0-7.7,3.4-7.7,7.7v8.2h0c0,0,0,0,0,0v0h0c0,0.5,0.2,1,0.6,1.4h0c0,0,0,0,0,0c0.4,0.4,1,0.6,1.5,0.6c0.5,0,1.1-0.2,1.5-0.6
				l1.1-1.1c0.1-0.1,0.1-0.1,0.2-0.1c0,0,0.1,0,0.2,0.1l1.2,1.2c0.4,0.4,0.9,0.6,1.5,0.6v0v0c0,0,0,0,0,0c0,0,0,0,0,0v0v0
				c0.5,0,1.1-0.2,1.5-0.6l1.2-1.2c0.1-0.1,0.1-0.1,0.2-0.1c0,0,0.1,0,0.2,0.1l1.1,1.1c0.4,0.4,1,0.6,1.5,0.6c0.5,0,1.1-0.2,1.5-0.6
				c0,0,0,0,0,0c0,0,0,0,0,0c0.4-0.4,0.6-0.9,0.6-1.4h0v-8.2C23.7,10,20.3,6.5,16,6.5C16,6.5,16,6.5,16,6.5"/>
		</defs>
		<clipPath id="SVGID_00000078723786092561076850000006720462154139454090_">
			<use xlink:href="#SVGID_00000129895594457869299100000005385711306191099541_"  overflow="visible"/>
		</clipPath>

		<linearGradient id="SVGID_00000067941713244235321040000012949293219706224281_" gradientUnits="userSpaceOnUse" x1="-415.5234" y1="253.7109" x2="-414.9749" y2="253.7109" gradientTransform="matrix(28.0654 0 0 -28.0654 11670.1172 7136.0215)">
			<stop  offset="0" style="stop-color:#CBA451"/>
			<stop  offset="0.5304" style="stop-color:#F6C675"/>
			<stop  offset="1" style="stop-color:#F6C675"/>
		</linearGradient>

		<rect x="8.3" y="6.5" clip-path="url(#SVGID_00000078723786092561076850000006720462154139454090_)" fill="url(#SVGID_00000067941713244235321040000012949293219706224281_)" width="15.4" height="18"/>
	</g>
</g>
</svg>
