<svg xmlns="http://www.w3.org/2000/svg" xmlns:xlink="http://www.w3.org/1999/xlink" width="31.92" height="31.92" viewBox="0 0 31.92 31.92">
  <defs>
    <linearGradient id="linear-gradient" x1="0.179" y1="0.851" x2="0.782" y2="0.062" gradientUnits="objectBoundingBox">
      <stop offset="0" stop-color="#53918d"/>
      <stop offset="0.463"/>
      <stop offset="1" stop-color="#4520a7"/>
    </linearGradient>
    <filter id="Union_173">
      <feOffset dy="0.2" input="SourceAlpha"/>
      <feGaussianBlur stdDeviation="0.1" result="blur"/>
      <feFlood flood-color="#fff" flood-opacity="0.161" result="color"/>
      <feComposite operator="out" in="SourceGraphic" in2="blur"/>
      <feComposite operator="in" in="color"/>
      <feComposite operator="in" in2="SourceGraphic"/>
    </filter>
  </defs>
  <g id="Group_11589" data-name="Group 11589" transform="translate(-11107 2186)">
    <g id="Ellipse_340" data-name="Ellipse 340" transform="translate(11107 -2186)" stroke="rgba(83,145,141,0.14)" stroke-width="3" fill="url(#linear-gradient)">
      <circle cx="15.96" cy="15.96" r="15.96" stroke="none"/>
      <circle cx="15.96" cy="15.96" r="14.46" fill="none"/>
    </g>
    <g id="Group_11588" data-name="Group 11588" transform="translate(11110.451 -2182.81)">
      <g data-type="innerShadowGroup">
        <path id="Union_173-2" data-name="Union 173" d="M8.173,24.781A12.8,12.8,0,0,1,.044,15.552L0,15.353H1.773l.032.123A10.961,10.961,0,0,0,3.263,18.8a11.107,11.107,0,0,0,5.569,4.383,11.056,11.056,0,0,0,14.379-7.7l.031-.123h1.774l-.045.2a12.674,12.674,0,0,1-1.629,3.969,12.826,12.826,0,0,1-6.5,5.26,12.782,12.782,0,0,1-8.672,0Zm3.51-3.129V19.76a4.883,4.883,0,0,1-2.8-1.523A4.649,4.649,0,0,1,8,16.831a4.5,4.5,0,0,1-.321-1.676v-.183h1.7v.183a3.14,3.14,0,1,0,3.137-3.023h-.183V10.481h.183a4.771,4.771,0,0,1,4.83,4.491h0v.183a4.5,4.5,0,0,1-.319,1.669,4.61,4.61,0,0,1-.875,1.4,4.877,4.877,0,0,1-2.785,1.528v1.9Zm.826-6.674A4.762,4.762,0,0,1,7.675,10.3,4.509,4.509,0,0,1,8,8.627a4.651,4.651,0,0,1,.883-1.407,4.886,4.886,0,0,1,2.8-1.523V3.887h1.682V5.7A4.882,4.882,0,0,1,16.15,7.232a4.632,4.632,0,0,1,.875,1.4,4.5,4.5,0,0,1,.319,1.669v.183h-1.7V10.3a3.14,3.14,0,0,0-6.275,0,3.086,3.086,0,0,0,3.137,3.023h.184v1.651Zm10.734-4.792-.031-.123a10.963,10.963,0,0,0-1.459-3.319,11.084,11.084,0,0,0-5.569-4.383A11.009,11.009,0,0,0,5.679,4.1,11.112,11.112,0,0,0,3.263,6.744a10.969,10.969,0,0,0-1.453,3.3v.143H0l.044-.2A12.665,12.665,0,0,1,1.673,6.018a12.769,12.769,0,0,1,21.67,0,12.665,12.665,0,0,1,1.629,3.969l.045.2Z" fill="#fff"/>
        <g transform="matrix(1, 0, 0, 1, -3.45, -3.19)" filter="url(#Union_173)">
          <path id="Union_173-3" data-name="Union 173" d="M8.173,24.781A12.8,12.8,0,0,1,.044,15.552L0,15.353H1.773l.032.123A10.961,10.961,0,0,0,3.263,18.8a11.107,11.107,0,0,0,5.569,4.383,11.056,11.056,0,0,0,14.379-7.7l.031-.123h1.774l-.045.2a12.674,12.674,0,0,1-1.629,3.969,12.826,12.826,0,0,1-6.5,5.26,12.782,12.782,0,0,1-8.672,0Zm3.51-3.129V19.76a4.883,4.883,0,0,1-2.8-1.523A4.649,4.649,0,0,1,8,16.831a4.5,4.5,0,0,1-.321-1.676v-.183h1.7v.183a3.14,3.14,0,1,0,3.137-3.023h-.183V10.481h.183a4.771,4.771,0,0,1,4.83,4.491h0v.183a4.5,4.5,0,0,1-.319,1.669,4.61,4.61,0,0,1-.875,1.4,4.877,4.877,0,0,1-2.785,1.528v1.9Zm.826-6.674A4.762,4.762,0,0,1,7.675,10.3,4.509,4.509,0,0,1,8,8.627a4.651,4.651,0,0,1,.883-1.407,4.886,4.886,0,0,1,2.8-1.523V3.887h1.682V5.7A4.882,4.882,0,0,1,16.15,7.232a4.632,4.632,0,0,1,.875,1.4,4.5,4.5,0,0,1,.319,1.669v.183h-1.7V10.3a3.14,3.14,0,0,0-6.275,0,3.086,3.086,0,0,0,3.137,3.023h.184v1.651Zm10.734-4.792-.031-.123a10.963,10.963,0,0,0-1.459-3.319,11.084,11.084,0,0,0-5.569-4.383A11.009,11.009,0,0,0,5.679,4.1,11.112,11.112,0,0,0,3.263,6.744a10.969,10.969,0,0,0-1.453,3.3v.143H0l.044-.2A12.665,12.665,0,0,1,1.673,6.018a12.769,12.769,0,0,1,21.67,0,12.665,12.665,0,0,1,1.629,3.969l.045.2Z" transform="translate(3.45 3.19)" fill="#fff"/>
        </g>
      </g>
    </g>
  </g>
</svg>
